<svg width="720" height="720" viewBox="0 0 720 720" fill="none" xmlns="http://www.w3.org/2000/svg">
<rect width="720" height="720" rx="130" fill="url(#paint0_linear_304_200)"/>
<path d="M235.542 349.361C233.192 346.176 229.198 343.564 224.359 343.564C215.399 343.564 208.937 350.405 208.937 359.666C208.937 368.936 215.399 375.77 224.359 375.77C228.546 375.77 232.46 373.986 234.506 372.207C234.643 372.086 234.713 371.918 234.713 371.732V366.708C234.713 366.397 234.458 366.14 234.143 366.14H222.617C222.159 366.14 221.786 365.767 221.786 365.31V357.853C221.786 357.397 222.16 357.023 222.617 357.023H243.283V345.954L236.611 349.61C236.254 349.805 235.781 349.683 235.542 349.361ZM138.536 354.595H150.845C154.369 354.595 156.574 352.611 156.574 349.45C156.574 346.431 154.369 344.3 150.845 344.3H138.536C138.113 344.3 137.772 344.642 137.772 345.064V353.831C137.772 354.252 138.113 354.595 138.536 354.595ZM188.581 383.469C188.581 383.851 188.274 384.152 187.897 384.152H178.836C178.459 384.152 178.152 383.851 178.152 383.469V335.793C178.152 335.416 178.459 335.11 178.836 335.11H187.897C188.274 335.11 188.581 335.416 188.581 335.793V383.469ZM240.676 269.319L150.801 335.11H153.12C162.448 335.11 167.223 341.064 167.223 347.608C167.223 352.699 164.564 356.463 160.998 358.124C160.406 358.399 160.426 359.243 161.031 359.487C165.188 361.192 168.176 365.644 168.176 370.846C168.176 378.278 163.328 384.155 153.928 384.155H128.106C127.685 384.155 127.341 383.816 127.341 383.393V352.284L60.6726 401.086C59.397 402.026 60.0561 404.053 61.6406 404.053H241.643C242.549 404.053 243.281 403.316 243.281 402.409V377.729C238.465 382.225 232.13 385.046 224.357 385.046C209.963 385.046 198.212 375.121 198.212 359.672C198.212 344.153 209.963 334.305 224.357 334.305C233.409 334.305 239.47 338.41 243.281 343.424V270.644C243.282 269.3 241.759 268.527 240.676 269.319ZM138.536 374.964H151.285C155.179 374.964 157.526 372.904 157.526 369.375C157.526 366.286 155.326 363.785 151.285 363.785H138.536C138.113 363.785 137.772 364.126 137.772 364.546V374.196C137.772 374.62 138.113 374.964 138.536 374.964ZM295.522 373.473L289.904 370.562C289.542 370.371 289.086 370.507 288.865 370.853C286.488 374.582 282.108 377.352 277.344 377.352C267.994 377.352 261.051 369.851 261.051 359.625C261.051 349.26 267.994 341.904 277.344 341.904C282.101 341.904 286.484 344.604 288.861 348.382C289.083 348.736 289.545 348.875 289.91 348.674L295.487 345.634C295.91 345.401 296.059 344.873 295.799 344.461C292.272 338.908 286.432 334.254 277.344 334.254C263.388 334.254 252.548 344.476 252.548 359.623C252.548 374.697 263.388 384.992 277.344 384.992C286.421 384.992 292.194 380.225 295.841 374.658C296.118 374.246 295.964 373.704 295.522 373.473ZM324.802 377.353C315.227 377.353 309.13 369.707 309.13 359.628C309.13 349.485 315.227 341.908 324.802 341.908C334.303 341.908 340.471 349.485 340.471 359.628C340.471 369.704 334.304 377.353 324.802 377.353ZM318.106 335.116C307.573 337.935 300.622 347.426 300.622 359.628C300.622 374.262 310.621 384.997 324.803 384.997C336.879 384.997 345.996 377.135 348.373 365.694C352.246 347.056 335.906 330.358 318.106 335.116ZM407.807 335.07H397.063C396.583 335.07 396.151 335.361 395.98 335.807L382.979 369.46L369.904 335.804C369.728 335.361 369.3 335.069 368.821 335.069H358.07C357.752 335.069 357.495 335.329 357.495 335.647V383.541C357.495 383.86 357.753 384.118 358.07 384.118H365.51C365.829 384.118 366.086 383.86 366.086 383.541V346.245L381.039 383.856C381.103 384.011 381.259 384.118 381.427 384.118H384.534C384.704 384.118 384.855 384.011 384.917 383.856L399.798 346.245V383.541C399.798 383.86 400.054 384.118 400.374 384.118H407.814C408.134 384.118 408.39 383.86 408.39 383.541V335.647C408.385 335.329 408.129 335.07 407.807 335.07ZM517.701 335.07H485.909C485.415 335.07 485.02 335.467 485.02 335.956V383.23C485.02 383.72 485.415 384.118 485.909 384.118H517.701C518.195 384.118 518.589 383.72 518.589 383.23V377.433C518.589 376.938 518.195 376.545 517.701 376.545H494.503C494.009 376.545 493.621 376.147 493.621 375.657V363.753C493.621 363.263 494.013 362.865 494.503 362.865H517.191C517.679 362.865 518.079 362.467 518.079 361.979V356.181C518.079 355.686 517.679 355.292 517.191 355.292H494.503C494.009 355.292 493.621 354.893 493.621 354.406V343.529C493.621 343.04 494.013 342.643 494.503 342.643H517.701C518.195 342.643 518.589 342.248 518.589 341.759V335.955C518.589 335.467 518.195 335.07 517.701 335.07ZM551.22 358.23H540.271C539.783 358.23 539.393 357.839 539.393 357.353V343.52C539.393 343.036 539.786 342.643 540.271 342.643H551.22C556.068 342.643 559.592 345.661 559.592 350.366C559.592 355.143 556.068 358.23 551.22 358.23ZM557.963 364.596C563.446 363.21 568.403 358.516 568.403 350.438C568.403 341.321 562.016 335.072 552.32 335.072H531.679C531.189 335.072 530.801 335.467 530.801 335.951V383.244C530.801 383.728 531.193 384.121 531.679 384.121H538.515C538.999 384.121 539.393 383.727 539.393 383.244V366.685C539.393 366.206 539.786 365.811 540.271 365.811H547.485C547.798 365.811 548.086 365.976 548.246 366.242L558.527 383.688C558.686 383.955 558.974 384.124 559.286 384.124H567.189C567.877 384.124 568.303 383.369 567.935 382.784C565.666 379.152 559.445 369.192 557.394 365.914C557.062 365.392 557.367 364.748 557.963 364.596ZM635.896 342.643H659.138C659.613 342.643 660 342.258 660 341.779V335.935C660 335.458 659.613 335.068 659.138 335.068H627.296C626.821 335.068 626.43 335.458 626.43 335.935V383.247C626.43 383.726 626.821 384.116 627.296 384.116H659.138C659.613 384.116 660 383.724 660 383.247V377.403C660 376.928 659.613 376.543 659.138 376.543H635.896C635.417 376.543 635.028 376.149 635.028 375.675V363.727C635.028 363.248 635.42 362.86 635.896 362.86H658.624C659.103 362.86 659.485 362.473 659.485 361.994V356.152C659.485 355.673 659.104 355.286 658.624 355.286H635.896C635.417 355.286 635.028 354.894 635.028 354.419V343.502C635.027 343.031 635.417 342.643 635.896 342.643ZM617.666 373.268L612.05 370.355C611.687 370.166 611.236 370.302 611.013 370.647C608.633 374.376 604.254 377.144 599.488 377.144C590.14 377.144 583.197 369.643 583.197 359.419C583.197 349.053 590.14 341.699 599.488 341.699C604.245 341.699 608.633 344.397 611.008 348.18C611.23 348.528 611.691 348.668 612.06 348.469L617.636 345.428C618.057 345.195 618.203 344.666 617.945 344.259C614.421 338.702 608.579 334.049 599.488 334.049C585.533 334.049 574.691 344.27 574.691 359.418C574.691 374.492 585.533 384.787 599.488 384.787C608.566 384.787 614.34 380.019 617.99 374.457C618.266 374.042 618.114 373.5 617.666 373.268ZM471.257 335.07H460.507C460.029 335.07 459.603 335.361 459.426 335.807L446.425 369.46L433.353 335.804C433.174 335.361 432.749 335.069 432.271 335.069H421.522C421.2 335.069 420.943 335.329 420.943 335.647V383.541C420.943 383.86 421.2 384.118 421.522 384.118H428.96C429.279 384.118 429.536 383.86 429.536 383.541V346.245L444.486 383.856C444.549 384.011 444.703 384.118 444.873 384.118H447.985C448.155 384.118 448.305 384.011 448.367 383.856L463.249 346.245V383.541C463.249 383.86 463.506 384.118 463.826 384.118H471.263C471.583 384.118 471.841 383.86 471.841 383.541V335.647C471.836 335.329 471.578 335.07 471.257 335.07Z" fill="white"/>
<defs>
<linearGradient id="paint0_linear_304_200" x1="5.96062e-09" y1="341" x2="720" y2="345.5" gradientUnits="userSpaceOnUse">
<stop stop-color="#02E5DE"/>
<stop offset="1" stop-color="#1156FF"/>
</linearGradient>
</defs>
</svg>
