<svg xmlns="http://www.w3.org/2000/svg" width="430" height="430" style="width:100%;height:100%;transform:translate3d(0,0,0);content-visibility:visible" viewBox="0 0 430 430"><defs><clipPath id="i"><path d="M0 0h430v430H0z"/></clipPath><clipPath id="s"><path d="M0 0h430v430H0z"/></clipPath><clipPath id="e"><path d="M0 0h430v430H0z"/></clipPath><clipPath id="p"><path d="M0 0h430v430H0z"/></clipPath><clipPath id="f"><path d="M0 0h430v430H0z"/></clipPath><clipPath id="m"><path d="M0 0h430v430H0z"/></clipPath><clipPath id="g"><path d="M0 0h430v430H0z"/></clipPath><clipPath id="j"><path d="M0 0h430v430H0z"/></clipPath><clipPath id="h"><path d="M0 0h430v430H0z"/></clipPath><filter id="t" width="300%" height="300%" x="-100%" y="-100%"><feGaussianBlur result="filter_result_0"/></filter><filter id="r" width="300%" height="300%" x="-100%" y="-100%"><feGaussianBlur result="filter_result_0" stdDeviation="52.5 52.5"/></filter><filter id="n" width="300%" height="300%" x="-100%" y="-100%"><feGaussianBlur result="filter_result_0"/></filter><filter id="k" width="300%" height="300%" x="-100%" y="-100%"><feGaussianBlur result="filter_result_0"/></filter><mask id="u" mask-type="alpha"><use xmlns:ns1="http://www.w3.org/1999/xlink" ns1:href="#a"/></mask><mask id="q" mask-type="alpha"><use xmlns:ns2="http://www.w3.org/1999/xlink" ns2:href="#b"/></mask><mask id="o" mask-type="alpha"><use xmlns:ns3="http://www.w3.org/1999/xlink" ns3:href="#c"/></mask><mask id="l" mask-type="alpha"><use xmlns:ns4="http://www.w3.org/1999/xlink" ns4:href="#d"/></mask><g id="a" fill-opacity="0" stroke-linecap="round" stroke-linejoin="round" clip-path="url(#e)" style="display:none"><g style="display:none"><path class="secondary"/><path class="secondary"/><path class="secondary"/><path class="secondary"/></g><path class="primary" style="display:none"/><path class="primary" style="display:none"/></g><g id="b" fill-opacity="0" stroke-linecap="round" stroke-linejoin="round" clip-path="url(#f)" style="display:block"><path stroke="#08A88A" stroke-width="12" d="M214.969 241.686v-53.371l.002-.001h19.973c9.461 0 17.131 7.67 17.131 17.131 0 0 0 0 0 0 0 9.461-7.67 17.131-17.131 17.131h-19.973m60.291 19.111v-53.276m-83.128 53.276-13.658-53.374h-16.155l-15.333 53.374m3.88-12.535h37.78" class="secondary" style="display:block"/><path stroke="#121331" stroke-width="12" d="M0-106.746c58.954 0 106.746 47.792 106.746 106.746 0 58.954-47.792 106.746-106.746 106.746-58.954 0-106.746-47.792-106.746-106.746 0-58.954 47.792-106.746 106.746-106.746z" class="primary" style="display:block" transform="translate(215 215)"/><path stroke="#121331" stroke-width="13.3" d="m167.381 33.779-9.732-5.619A161.096 161.096 0 0 0 160.119 0c0-9.608-.848-19.018-2.47-28.16l9.732-5.619c11.899-6.87 15.976-22.085 9.106-33.984l-29.559-51.197c-6.87-11.898-22.085-15.975-33.984-9.106l-9.762 5.636c-14.32-12.081-30.783-21.698-48.745-28.191v-11.224c0-13.74-11.138-24.878-24.878-24.878h-59.118c-13.74 0-24.878 11.138-24.878 24.878v11.224c-17.962 6.493-34.425 16.11-48.745 28.191l-9.762-5.636c-11.899-6.869-27.114-2.792-33.984 9.106l-29.559 51.197c-6.87 11.899-2.793 27.114 9.106 33.984l9.732 5.619A161.096 161.096 0 0 0-160.119 0c0 9.608.848 19.018 2.47 28.16l-9.732 5.619c-11.899 6.87-15.976 22.085-9.106 33.984l29.559 51.197c6.87 11.899 22.085 15.976 33.984 9.106l9.762-5.636c14.32 12.081 30.783 21.698 48.745 28.191v11.224c0 13.74 11.138 24.878 24.878 24.878h59.118c13.74 0 24.878-11.138 24.878-24.878v-11.224c17.962-6.493 34.425-16.11 48.745-28.191l9.762 5.636c11.899 6.87 27.114 2.793 33.984-9.106l29.559-51.197c6.87-11.899 2.793-27.114-9.106-33.984z" class="primary" style="display:block" transform="matrix(.9 0 0 .9 215 215)"/></g><g id="c" fill-opacity="0" stroke-linecap="round" stroke-linejoin="round" clip-path="url(#g)" style="display:none"><g style="display:none"><path class="secondary"/><path class="secondary"/><path class="secondary"/><path class="secondary"/></g><path class="primary" style="display:none"/><path class="primary" style="display:none"/></g><g id="d" fill-opacity="0" stroke-linecap="round" stroke-linejoin="round" clip-path="url(#h)" style="display:none"><g style="display:none"><path class="secondary"/><path class="secondary"/><path class="secondary"/><path class="secondary"/></g><path class="primary" style="display:none"/><path class="primary" style="display:none"/></g></defs><g clip-path="url(#i)"><g clip-path="url(#j)" filter="url(#k)" mask="url(#l)" style="display:none"><g class="design"><path class="primary"/></g><g class="design"><path class="secondary"/></g></g><g clip-path="url(#m)" filter="url(#n)" mask="url(#o)" style="display:none"><g class="design"><path class="primary"/></g><g class="design"><path class="secondary"/></g></g><g clip-path="url(#p)" mask="url(#q)" style="display:block"><g filter="url(#r)" transform="rotate(-94 238.762 -16.565) scale(2.4)"><g class="design"><path fill="#4BE1EC" d="M0-250c137.975 0 250 112.025 250 250S137.975 250 0 250-250 137.975-250 0-137.975-250 0-250z" class="primary"/></g><g class="design"><path fill="#CB5EEE" d="M113.242-295.384c97.478 0 176.5 79.022 176.5 176.5s-79.022 176.5-176.5 176.5c-43.948 0-74.396-34.057-105.29-60.631-37.631-32.369-71.21-62.338-71.21-115.869 0-97.478 79.022-176.5 176.5-176.5z" class="secondary"/></g></g></g><g clip-path="url(#s)" filter="url(#t)" mask="url(#u)" style="display:none"><g class="design"><path class="primary"/></g><g class="design"><path class="secondary"/></g></g></g></svg>